PathFileType	4	(X/Y/Z)	TVC_58_BWA_04_walk_RCNL2025.trc
DataRate	CameraRate	NumFrames	NumMarkers	Units	OrigDataRate	OrigDataStartFrame	OrigNumFrames
100	100	11	27	mm	100	110	437
Frame#	Time	R_Shoulder			L_Shoulder			C7			J_Notch			R_Elbow			L_Elbow			R_Wrist			L_Wrist			R_Asis			L_Asis			R_Psis			L_Psis			Sacral			Thoracic			Sternum			R_Thigh_Lateral			R_Knee_Lateral			R_Shank_Lateral			R_Ankle_Lateral			R_Heel			R_Toe			L_Thigh_Lateral			L_Knee_Lateral			L_Shank_Lateral			L_Ankle_Lateral			L_Heel			L_Toe		
		X1	Y1	Z1	X2	Y2	Z2	X3	Y3	Z3	X4	Y4	Z4	X5	Y5	Z5	X6	Y6	Z6	X7	Y7	Z7	X8	Y8	Z8	X9	Y9	Z9	X10	Y10	Z10	X11	Y11	Z11	X12	Y12	Z12	X13	Y13	Z13	X14	Y14	Z14	X15	Y15	Z15	X16	Y16	Z16	X17	Y17	Z17	X18	Y18	Z18	X19	Y19	Z19	X20	Y20	Z20	X21	Y21	Z21	X22	Y22	Z22	X23	Y23	Z23	X24	Y24	Z24	X25	Y25	Z25	X26	Y26	Z26	X27	Y27	Z27
110	1.09000000	-570.612671	1332.429565	102.813797	-582.829346	1357.338989	-253.243973	-635.939514	1415.317261	-77.830154	-491.940796	1318.316406	-79.061928	-555.632507	1012.020508	168.149200	-651.615417	1039.328491	-321.601105	-419.644470	802.901123	196.686333	-572.821594	810.121796	-389.763992	-451.963165	914.125977	52.642147	-469.775055	909.639526	-262.644592	-686.448975	942.240051	-32.328243	-692.459106	928.915894	-141.053558	-689.454041	935.577972	-86.690901	-683.394592	1106.797729	-86.530968	-386.121948	1088.054810	-106.939995	-472.638550	695.278564	131.746536	-478.289703	463.710480	40.939491	-516.375916	259.668091	80.033722	-582.422974	68.049438	-17.436153	-640.871826	63.925251	-65.256554	-460.617035	46.473366	-63.344563	-482.908783	665.670044	-330.574036	-359.180298	485.141449	-244.446213	-459.132935	318.568024	-289.461700	-599.284363	143.918701	-192.579788	-636.727112	157.352768	-137.112900	-483.906982	69.133766	-183.388535
111	1.10000000	-562.576416	1332.508911	103.016434	-575.998047	1357.546875	-252.949081	-628.341614	1415.459961	-77.332283	-484.582703	1318.134399	-79.049377	-544.513611	1012.463440	168.482956	-646.825562	1039.579468	-320.352661	-406.924179	804.334045	196.082954	-566.976562	810.437836	-388.680084	-445.745789	913.972168	52.944729	-463.122467	910.515320	-262.675781	-679.916260	942.241455	-32.580231	-685.811890	929.158325	-141.403473	-682.864075	935.699890	-86.991852	-676.612183	1107.057861	-86.210129	-379.539856	1088.096680	-106.916481	-466.809021	694.553650	131.010925	-475.462311	463.139099	40.470398	-514.395203	259.279724	79.615105	-582.275574	68.122513	-17.546362	-640.790466	64.157341	-65.298660	-460.562134	46.436817	-63.533772	-473.522827	666.582520	-330.455048	-348.686554	487.549438	-243.642929	-440.292358	316.205933	-288.782074	-571.616394	134.715469	-192.836487	-610.122620	146.321854	-137.614166	-452.482819	66.188454	-182.612396
112	1.11000000	-554.600830	1332.557739	103.163284	-569.164062	1357.689453	-252.702255	-620.787292	1415.527100	-76.903816	-477.246735	1317.921143	-79.066948	-533.572571	1012.877991	168.696152	-641.925659	1039.767822	-319.129547	-394.421997	805.710754	195.346550	-561.120148	810.653015	-387.578995	-439.449860	913.708252	53.169605	-456.272858	911.220276	-262.576691	-673.301819	942.222107	-32.851616	-679.097534	929.330994	-141.847290	-676.199677	935.776550	-87.349453	-669.802185	1107.231201	-85.959320	-372.869232	1088.081055	-106.837746	-461.179138	693.835388	130.344131	-472.777496	462.585449	40.092941	-512.381287	258.873535	79.178864	-582.142456	68.201332	-17.641617	-640.713379	64.386719	-65.330589	-460.519897	46.399044	-63.710953	-464.542908	667.278015	-330.330322	-338.945892	489.549561	-242.834457	-421.425842	313.689240	-288.103455	-543.376587	125.667603	-193.142883	-582.822388	135.298523	-138.145752	-420.745636	63.640396	-181.903900
113	1.12000000	-546.684387	1332.561646	103.256401	-562.313232	1357.751831	-252.504837	-613.274597	1415.509155	-76.546135	-469.927094	1317.667969	-79.111229	-522.828369	1013.245056	168.795044	-636.889465	1039.881470	-317.955658	-382.135849	807.022400	194.480797	-555.253357	810.751892	-386.477386	-433.060364	913.325134	53.305893	-449.224579	911.729553	-262.376648	-666.608093	942.179260	-33.151871	-672.315063	929.421326	-142.377213	-669.461578	935.800293	-87.764542	-662.958191	1107.308960	-85.782906	-366.098969	1087.989746	-106.714211	-455.731750	693.131470	129.749390	-470.232239	462.050140	39.811302	-510.463898	258.479523	78.774315	-582.021423	68.286110	-17.721869	-640.638916	64.616463	-65.354355	-460.492920	46.359035	-63.872108	-456.009125	667.705872	-330.197968	-329.938416	491.093140	-242.016205	-402.622986	311.277649	-287.513672	-514.678711	116.964310	-193.520813	-554.938965	124.498627	-138.740479	-388.855896	61.617344	-181.246246
114	1.13000000	-538.826782	1332.506226	103.298126	-555.432495	1357.720825	-252.358154	-605.800842	1415.396851	-76.260376	-462.618134	1317.365601	-79.179344	-512.295959	1013.545471	168.786545	-631.694519	1039.909180	-316.853790	-370.063065	808.259674	193.490311	-549.375946	810.720337	-385.391678	-426.569214	912.821960	53.349693	-441.984985	912.027039	-262.108826	-659.840088	942.107910	-33.493450	-665.464172	929.417664	-142.984329	-662.652130	935.762787	-88.238890	-656.074036	1107.282959	-85.685196	-359.224060	1087.809082	-106.557442	-450.439545	692.446960	129.225006	-467.810669	461.530945	39.623123	-508.770874	258.126251	78.458908	-581.909607	68.376213	-17.788107	-640.565674	64.850456	-65.372368	-460.481934	46.316338	-64.014458	-447.948669	667.828674	-330.064545	-321.630798	492.148224	-241.187408	-384.001709	309.148865	-287.063477	-485.667694	108.785057	-193.985245	-526.619568	114.131851	-139.422256	-356.999847	60.231789	-180.639755
115	1.14000000	-531.028198	1332.377563	103.290848	-548.510010	1357.584595	-252.263550	-598.363037	1415.181885	-76.047424	-455.314514	1317.004883	-79.269104	-501.985931	1013.760620	168.677734	-626.321594	1039.840942	-315.845093	-358.200851	809.412628	192.380646	-543.486511	810.546204	-384.337906	-419.974548	912.205627	53.303860	-434.569153	912.104980	-261.807190	-653.004944	942.000732	-33.890907	-658.544861	929.309937	-143.659363	-655.774902	935.655334	-88.775135	-649.143860	1107.145630	-85.670128	-352.244843	1087.530151	-106.379257	-445.266632	691.782898	128.765167	-465.484863	461.021881	39.519314	-507.391327	257.830444	78.278580	-581.803589	68.470451	-17.842121	-640.492432	65.092735	-65.387184	-460.485779	46.271069	-64.136642	-440.375427	667.626282	-329.946014	-313.975311	492.703430	-240.352676	-365.687286	307.378998	-286.755737	-456.516602	101.291321	-194.541626	-498.041748	104.392105	-140.202545	-325.381653	59.576340	-180.103210
116	1.15000000	-523.289368	1332.161987	103.236877	-541.535706	1357.333862	-252.222473	-590.957520	1414.856934	-75.907951	-448.011200	1316.577637	-79.379250	-491.904602	1013.872742	168.475632	-620.755066	1039.668335	-314.948334	-346.546585	810.471283	191.158195	-537.582901	810.219513	-383.331497	-413.280365	911.489258	53.176991	-426.998047	911.963623	-261.503632	-646.111084	941.848755	-34.359768	-651.557190	929.090149	-144.393372	-648.834137	935.469452	-89.376570	-642.161865	1106.890503	-85.741005	-345.165619	1087.148804	-106.191071	-440.171021	691.136047	128.361282	-463.217224	460.513214	39.484825	-506.353424	257.594635	78.254875	-581.699707	68.567490	-17.886162	-640.417786	65.347137	-65.401169	-460.501526	46.223885	-64.238724	-433.289673	667.097168	-329.867279	-306.909271	492.770355	-239.522537	-347.807983	305.968933	-286.559937	-427.423248	94.617958	-195.184860	-469.408386	95.448402	-141.078827	-294.214111	59.717018	-179.668289
117	1.16000000	-515.611267	1331.847656	103.138252	-534.501404	1356.961914	-252.236420	-583.580383	1414.416260	-75.842445	-440.703491	1316.076660	-79.509567	-482.054565	1013.865906	168.186844	-614.982544	1039.384521	-314.179657	-335.097946	811.425476	189.830116	-531.662415	809.733002	-382.387146	-406.494904	910.690491	52.982113	-419.296478	911.609619	-261.225830	-639.167175	941.641846	-34.915115	-644.500793	928.752808	-145.178238	-641.833984	935.197327	-90.046677	-635.122742	1106.512329	-85.900177	-337.993378	1086.664551	-106.003601	-435.106659	690.499207	128.002869	-460.964294	459.993134	39.500439	-505.622742	257.411194	78.383034	-581.594238	68.666245	-17.922546	-640.340271	65.617355	-65.416168	-460.525330	46.175594	-64.322311	-426.677368	666.257751	-329.859283	-300.354675	492.383575	-238.712494	-330.512543	304.892914	-286.427734	-398.606018	88.864868	-195.898926	-440.940948	87.436523	-142.033707	-263.712067	60.685150	-179.369446
118	1.17000000	-507.994537	1331.424194	102.996651	-527.401062	1356.464478	-252.306976	-576.227234	1413.856079	-75.851234	-433.387115	1315.495972	-79.661003	-472.435150	1013.725769	167.817352	-608.994812	1038.984619	-313.552277	-323.853348	812.265289	188.404228	-525.722076	809.082123	-381.518677	-399.628296	909.829468	52.735142	-411.490997	911.054871	-260.995789	-632.181030	941.369263	-35.570049	-637.374634	928.295593	-146.006958	-634.777832	934.832428	-90.788504	-628.021362	1106.007812	-86.148827	-330.736420	1086.080566	-105.826599	-430.025482	689.861572	127.678391	-458.682251	459.450867	39.544968	-505.113068	257.266815	78.635452	-581.483337	68.766296	-17.953321	-640.258118	65.907181	-65.433342	-460.553009	46.126797	-64.390381	-420.510010	665.140015	-329.954224	-294.218872	491.598969	-237.941055	-313.989624	304.136261	-286.319061	-370.300049	84.089890	-196.657227	-412.874420	80.452499	-143.035065	-234.088486	62.469334	-179.232559
119	1.18000000	-500.439301	1330.883789	102.813286	-520.230530	1355.840088	-252.435822	-568.893311	1413.174805	-75.934525	-426.058167	1314.831665	-79.835640	-463.042877	1013.440674	167.372406	-602.785400	1038.465576	-313.076263	-312.812073	812.981354	186.888885	-519.758682	808.265259	-380.738907	-392.690308	908.926697	52.453075	-403.607941	910.315186	-260.829620	-625.158630	941.020752	-36.334175	-630.177063	927.719482	-146.873718	-627.667847	934.370117	-91.603947	-620.852844	1105.375366	-86.486694	-323.403046	1085.402710	-105.668839	-424.879639	689.210083	127.376183	-456.331451	458.879181	39.597485	-504.703247	257.143250	78.966934	-581.363464	68.867966	-17.980139	-640.169495	66.220779	-65.453209	-460.580627	46.077724	-64.446678	-414.745331	663.786438	-330.179657	-288.396301	490.489746	-237.226883	-298.465759	303.700409	-286.242432	-342.751709	80.303772	-197.423325	-385.453857	74.548050	-144.037674	-205.552902	65.008102	-179.264511
120	1.19000000	-492.944519	1330.220947	102.588806	-512.987854	1355.089600	-252.624664	-561.573608	1412.373047	-76.092400	-418.712982	1314.081665	-80.036636	-453.872467	1013.001465	166.856461	-596.350708	1037.826050	-312.758698	-301.974640	813.564880	185.292877	-513.768875	807.283905	-380.059692	-385.688446	908.000305	52.152100	-395.671844	909.408630	-260.737946	-618.102905	940.587402	-37.212276	-622.905701	927.028809	-147.773712	-620.504303	933.808105	-92.492994	-613.612915	1104.615601	-86.911987	-316.000702	1084.638306	-105.538399	-419.624115	688.529968	127.085480	-453.879578	458.275116	39.639496	-504.259033	257.017761	79.323166	-581.231140	68.972298	-18.004385	-640.072510	66.562859	-65.475731	-460.604797	46.028313	-64.495033	-409.329132	662.244263	-330.552307	-282.771790	489.141235	-236.585861	-284.150360	303.572510	-286.259521	-316.211487	77.468109	-198.151917	-358.931458	69.727562	-144.985489	-178.308975	68.184784	-179.446228
